<?xml version="1.0" standalone="no"?>
<!DOCTYPE svg PUBLIC "-//W3C//DTD SVG 20010904//EN"
 "http://www.w3.org/TR/2001/REC-SVG-20010904/DTD/svg10.dtd">
<svg version="1.0" xmlns="http://www.w3.org/2000/svg"
 width="1024.000000pt" height="307.000000pt" viewBox="0 0 1024.000000 307.000000"
 preserveAspectRatio="xMidYMid meet">

<g transform="translate(0.000000,307.000000) scale(0.100000,-0.100000)"
fill="#ee3020" stroke="none">
<path d="M955 3030 c-64 -13 -91 -27 -134 -66 -58 -52 -90 -115 -166 -324 -36
-102 -71 -196 -77 -210 -5 -14 -27 -72 -48 -130 -21 -58 -52 -143 -70 -190
-17 -47 -54 -148 -82 -225 -28 -77 -57 -157 -64 -178 -8 -21 -55 -149 -104
-284 -50 -136 -89 -252 -86 -259 3 -7 29 -21 58 -32 29 -12 100 -39 158 -61
58 -23 112 -41 120 -41 15 0 29 34 118 282 l34 97 392 3 c215 2 397 1 404 -1
6 -2 12 -8 12 -14 0 -11 90 -264 117 -329 19 -44 32 -46 100 -17 26 11 95 39
153 60 58 22 108 43 112 47 5 5 -24 96 -63 203 -39 106 -88 241 -109 299 -21
58 -50 137 -65 175 -14 39 -30 81 -35 95 -4 14 -20 57 -35 95 -14 39 -40 108
-57 155 -17 47 -37 102 -44 123 -8 21 -55 149 -104 284 -97 263 -132 336 -183
379 -65 55 -168 81 -252 64z m197 -862 c70 -211 128 -388 128 -395 0 -10 -59
-13 -270 -13 -148 0 -270 1 -270 3 0 7 260 779 266 788 3 6 9 8 12 5 3 -3 63
-178 134 -388z"/>
<path d="M3279 2059 c-15 -5 -29 -20 -32 -32 -3 -12 -22 -69 -42 -127 -41
-114 -57 -159 -133 -380 -28 -80 -71 -202 -96 -272 l-45 -128 94 0 94 0 28 88
28 87 175 0 175 0 20 -70 c33 -114 22 -105 130 -105 53 0 95 4 95 10 0 5 -4
19 -10 32 -5 13 -73 218 -150 455 -78 238 -146 436 -152 439 -19 12 -152 14
-179 3z m140 -395 c28 -105 51 -196 51 -203 0 -8 -36 -11 -120 -11 -66 0 -120
3 -120 6 0 9 60 223 76 269 7 22 20 67 29 100 12 41 19 55 25 45 4 -8 31 -101
59 -206z"/>
<path d="M5628 1928 c-3 -137 -4 -143 -23 -140 -190 31 -301 -17 -356 -154
-21 -51 -24 -76 -24 -189 0 -140 12 -185 71 -262 53 -69 156 -96 263 -69 34 9
65 16 67 16 2 0 4 -54 4 -120 l0 -120 80 0 80 0 0 121 c0 121 0 121 23 115 86
-25 127 -29 180 -17 142 31 218 181 203 396 -6 69 -14 103 -37 151 -58 123
-158 161 -344 132 -19 -3 -20 3 -23 140 l-3 142 -79 0 -79 0 -3 -142z m-14
-287 c13 -11 16 -43 16 -197 l0 -183 -42 -11 c-74 -21 -139 3 -168 61 -19 36
-21 55 -18 153 3 98 6 115 27 144 13 19 33 38 45 43 29 12 121 5 140 -10z
m361 -16 c37 -38 47 -77 47 -183 0 -149 -74 -224 -191 -192 l-41 11 2 187 3
186 25 13 c14 7 47 13 74 13 43 0 53 -4 81 -35z"/>
<path d="M7643 2055 c-45 -7 -86 -16 -92 -20 -8 -4 -11 -142 -11 -446 l0 -439
28 -11 c103 -39 318 -50 414 -20 63 20 120 70 153 136 27 53 30 70 30 150 0
81 -3 95 -29 143 -32 58 -94 105 -160 123 -25 7 -85 9 -148 6 l-108 -5 0 118
c0 102 2 119 17 124 22 9 275 8 319 0 l34 -6 0 70 0 69 -88 12 c-111 14 -253
12 -359 -4z m286 -537 c59 -41 76 -125 43 -201 -27 -60 -64 -79 -150 -78 -108
1 -102 -8 -102 151 0 136 0 139 23 144 45 9 164 -1 186 -16z"/>
<path d="M4022 1785 c-125 -23 -112 7 -112 -253 0 -198 -3 -232 -19 -267 -10
-22 -25 -46 -34 -53 -15 -13 -14 -18 8 -63 23 -45 27 -48 50 -39 138 52 165
115 165 377 l0 163 95 0 c69 0 95 -3 96 -12 0 -7 0 -127 -1 -265 l-1 -253 86
0 85 0 -2 323 -3 322 -85 17 c-100 20 -226 21 -328 3z"/>
<path d="M6420 1789 c-82 -13 -78 -10 -65 -76 l12 -58 105 3 c145 5 168 -7
168 -90 l0 -47 -65 6 c-134 12 -258 -49 -284 -142 -48 -174 55 -296 239 -283
41 3 84 14 113 28 l45 23 34 -26 34 -26 52 35 c29 19 52 37 52 40 0 2 -10 24
-22 47 -20 38 -23 62 -28 247 -6 214 -11 241 -56 282 -48 42 -198 59 -334 37z
m221 -454 c3 -44 2 -83 -1 -88 -13 -15 -109 -20 -141 -7 -43 18 -64 69 -49
116 16 47 51 64 125 61 l60 -2 6 -80z"/>
<path d="M8380 1786 c-36 -6 -65 -16 -65 -21 2 -31 18 -106 24 -110 4 -2 35 0
70 5 34 5 85 5 113 1 65 -11 88 -36 88 -97 l0 -44 -60 7 c-127 13 -243 -37
-281 -120 -21 -47 -25 -139 -8 -184 42 -111 191 -155 335 -97 l64 26 31 -26
c29 -25 32 -25 57 -10 15 8 40 26 55 38 l29 23 -23 44 c-21 40 -24 62 -30 244
-3 110 -11 212 -17 226 -19 46 -66 84 -122 97 -62 14 -171 14 -260 -2z m230
-455 c6 -97 7 -96 -86 -96 -46 0 -67 5 -82 19 -45 40 -35 122 17 151 16 9 48
14 86 12 l60 -2 5 -84z"/>
<path d="M4598 1473 c-2 -175 0 -322 4 -327 13 -17 164 -46 239 -46 193 0 289
83 289 250 0 118 -30 169 -125 211 -43 19 -61 21 -147 16 l-98 -5 0 109 0 109
-80 0 -79 0 -3 -317z m329 -47 c25 -22 28 -31 28 -86 -1 -55 -4 -65 -28 -86
-23 -20 -39 -24 -91 -24 -76 0 -76 -1 -76 120 0 100 -3 97 87 99 41 1 57 -4
80 -23z"/>
<path d="M10049 1768 c-23 -15 -47 -48 -72 -98 -69 -136 -72 -140 -111 -140
l-35 0 -3 123 -3 122 -87 3 -88 3 0 -331 0 -330 90 0 90 0 0 135 0 135 28 0
c49 0 68 -25 130 -170 l40 -95 91 -3 c50 -1 91 1 91 6 0 5 -31 72 -70 150 -54
110 -78 146 -104 165 l-35 23 32 26 c18 14 47 55 65 91 26 53 57 89 88 101 1
1 5 25 9 54 l7 52 -60 0 c-45 0 -67 -5 -93 -22z"/>
<path d="M8940 1450 l0 -330 85 0 85 0 0 135 0 135 105 0 105 0 0 -135 0 -135
80 0 80 0 0 330 0 330 -80 0 -80 0 0 -124 0 -124 -27 -3 c-16 -2 -63 -3 -105
-1 l-78 4 0 124 0 124 -85 0 -85 0 0 -330z"/>
<path d="M7123 1540 c-40 -24 -53 -48 -53 -97 1 -80 84 -127 158 -89 26 13 42
37 56 79 10 32 -23 94 -59 111 -43 21 -63 20 -102 -4z"/>
<path d="M54 417 c-2 -7 -3 -94 -2 -192 l3 -180 956 -3 957 -2 4 182 c2 101 2
189 0 195 -6 19 -1910 19 -1918 0z"/>
</g>
</svg>
