<?xml version="1.0" encoding="UTF-8"?>
<!DOCTYPE svg PUBLIC "-//W3C//DTD SVG 1.1//EN" "http://www.w3.org/Graphics/SVG/1.1/DTD/svg11.dtd">
<!-- Creator: CorelDRAW X7 -->
<svg xmlns="http://www.w3.org/2000/svg" xml:space="preserve"  version="1.1" style="shape-rendering:geometricPrecision; text-rendering:geometricPrecision; image-rendering:optimizeQuality; fill-rule:evenodd; clip-rule:evenodd"
viewBox="0 0 5500 3080"
 xmlns:xlink="http://www.w3.org/1999/xlink">
 <defs>
  <style type="text/css">
   <![CDATA[
    .fil0 {fill:#FEFEFE}
    .fil1 {fill:#DC373C}
   ]]>
  </style>
 </defs>
 <g id="Слой_x0020_1">
  <metadata id="CorelCorpID_0Corel-Layer"/>
  <polygon class="fil0" points="0,0 5418,0 5418,3080 0,3080 "/>
  <path class="fil1" d="M0 3080l5418 0 0 -3080 -5418 0 0 3080zm5072 -272l-102 0 0 -2193 -591 -215 0 2407 -4052 1 0 -102 2964 0 0 -2167 1088 -261 693 265 0 2265z"/>
  <path class="fil0" d="M1949 1031l370 0 0 93 -231 0 0 69 214 0 0 89 -214 0 0 86 238 0 0 99 -377 0 0 -436zm-589 0l181 0 70 265 70 -265 181 0 0 436 -113 0 0 -333 -87 333 -102 0 -87 -333 0 333 -113 0 0 -436zm-398 219c0,44 9,75 25,95 17,19 40,28 69,28 30,0 53,-9 69,-28 16,-19 24,-53 24,-101 0,-41 -8,-71 -25,-90 -17,-19 -40,-29 -69,-29 -28,0 -50,10 -67,29 -17,20 -26,51 -26,96zm-137 -1c0,-71 20,-126 61,-166 40,-40 97,-60 169,-60 74,0 131,20 172,59 40,39 60,93 60,163 0,51 -9,93 -26,126 -18,32 -43,58 -76,76 -33,18 -75,27 -125,27 -50,0 -91,-8 -125,-23 -32,-16 -59,-41 -80,-75 -20,-34 -30,-76 -30,-127zm1467 329l419 0 0 107 -141 0 0 329 -138 0 0 -329 -140 0 0 -107zm-177 0l139 0 0 436 -139 0 0 -436zm-321 98l0 238 34 0c29,0 49,-3 62,-9 12,-6 21,-17 28,-32 7,-16 10,-41 10,-76 0,-46 -7,-78 -23,-95 -15,-17 -41,-26 -77,-26l-34 0zm-138 -98l205 0c40,0 73,5 98,16 25,11 45,26 61,46 17,20 28,43 36,70 7,26 11,54 11,84 0,47 -6,83 -17,109 -10,25 -25,47 -45,64 -19,17 -40,29 -62,35 -30,7 -57,12 -82,12l-205 0 0 -436zm-423 0l370 0 0 93 -231 0 0 69 214 0 0 89 -214 0 0 86 238 0 0 99 -377 0 0 -436zm-314 176l58 0c6,0 18,-2 36,-6 9,-1 17,-6 22,-13 6,-7 9,-16 9,-26 0,-14 -4,-24 -14,-32 -9,-8 -26,-11 -51,-11l-60 0 0 88zm-139 260l0 -436 230 0c42,0 75,3 97,11 23,7 41,20 55,39 14,19 20,43 20,71 0,24 -5,45 -15,62 -11,18 -25,32 -44,43 -11,7 -28,13 -48,17 16,6 28,11 36,16 5,4 12,12 22,23 9,12 16,21 19,27l67 127 -156 0 -74 -134c-9,-17 -17,-28 -25,-33 -10,-7 -21,-10 -34,-10l-11 0 0 177 -139 0zm-160 -178l120 35c-7,33 -20,61 -38,83 -17,23 -39,39 -65,51 -25,11 -58,16 -98,16 -49,0 -89,-6 -119,-20 -31,-14 -58,-38 -80,-73 -22,-35 -34,-79 -34,-133 0,-72 20,-128 59,-166 39,-39 95,-59 167,-59 56,0 100,11 132,34 33,22 57,56 72,102l-122 27c-4,-14 -8,-24 -13,-30 -8,-10 -17,-18 -28,-24 -11,-5 -24,-8 -38,-8 -31,0 -54,13 -72,37 -12,18 -18,47 -18,86 0,48 7,81 22,99 15,18 36,27 63,27 27,0 47,-7 60,-22 14,-14 23,-35 30,-62zm1088 289l138 0 0 165 145 -165 183 0 -162 164 170 272 -170 0 -95 -180 -71 73 0 107 -138 0 0 -436zm-488 0l130 0 167 241 0 -241 130 0 0 436 -130 0 -167 -240 0 240 -130 0 0 -436zm-209 269l-49 -156 -49 156 98 0zm29 95l-157 0 -22 72 -140 0 167 -436 151 0 168 436 -145 0 -22 -72zm-578 -22l70 0c24,0 41,-4 50,-12 10,-8 15,-19 15,-34 0,-12 -5,-23 -14,-31 -10,-7 -27,-11 -51,-11l-70 0 0 88zm0 -171l60 0c22,0 36,-4 45,-11 8,-7 12,-18 12,-31 0,-13 -4,-23 -12,-30 -9,-8 -24,-11 -44,-11l-61 0 0 83zm-139 -171l258 0c43,0 76,10 99,31 23,21 35,47 35,77 0,26 -8,48 -25,67 -11,12 -27,22 -48,29 32,7 56,20 71,38 15,19 22,42 22,70 0,22 -5,43 -16,61 -10,18 -25,32 -44,43 -11,6 -29,11 -52,14 -31,4 -52,6 -62,6l-238 0 0 -436zm0 -1094l138 0 0 152 151 0 0 -152 139 0 0 436 -139 0 0 -177 -151 0 0 177 -138 0 0 -436z"/>
  <path class="fil1" d="M15478 2819l222 0 0 -781 270 0 0 -183 -759 0 0 183 267 0 0 781zm-1202 -964l0 964 254 0 200 -347c20,-34 39,-71 59,-109 21,-38 40,-77 58,-117 19,-40 36,-79 51,-117l5 0c-7,62 -11,127 -13,194 -3,67 -3,138 -3,212l0 284 204 0 0 -964 -228 0 -212 379c-20,35 -40,72 -61,110 -20,39 -40,78 -60,117 -20,40 -38,79 -56,117l-4 0c2,-43 4,-89 6,-136 2,-48 3,-97 4,-148 1,-50 1,-101 1,-153l0 -286 -205 0zm-663 178l217 0 0 609 -328 0c13,-23 25,-49 36,-77 13,-27 23,-57 32,-86 14,-49 25,-100 33,-153 7,-54 10,-108 10,-164l0 -129zm-206 -178l0 258c0,58 -2,114 -9,167 -6,54 -16,105 -29,153 -11,38 -24,75 -40,111 -16,35 -34,70 -54,104l-83 5 9 409 169 0 12 -243 578 0 12 243 168 0 11 -409 -98 -5 0 -793 -646 0zm-332 379l-363 0 0 -200 385 0 0 -179 -607 0 0 964 627 0 0 -179 -405 0 0 -228 363 0 0 -178zm-1216 -213c8,-2 20,-4 35,-5 15,-1 34,-2 56,-2 56,1 99,13 130,37 30,25 45,60 45,105 0,32 -8,60 -23,83 -16,24 -37,41 -66,54 -29,12 -63,18 -102,19 -17,0 -31,-1 -43,-1 -12,-2 -23,-3 -32,-5l0 -285zm-221 798l221 0 0 -346c10,2 22,4 35,5 13,1 27,1 41,1 66,0 127,-8 181,-25 55,-17 101,-42 140,-77 30,-26 52,-59 67,-99 16,-39 23,-82 23,-130 0,-47 -9,-90 -28,-128 -19,-38 -44,-70 -77,-94 -33,-26 -74,-45 -124,-58 -50,-13 -109,-20 -177,-20 -68,0 -127,2 -176,6 -50,4 -92,8 -126,14l0 951zm-884 -964l0 964 220 0 0 -403 42 0c40,0 72,9 98,25 25,17 46,40 61,69 16,28 29,61 40,98 11,35 23,72 34,108 12,36 26,70 42,103l240 0c-23,-48 -43,-98 -61,-149 -18,-51 -36,-102 -53,-154 -13,-39 -29,-73 -48,-105 -19,-31 -43,-57 -71,-79 -29,-21 -64,-37 -106,-48l344 -429 -271 0 -271 402 -20 0 0 -402 -220 0zm-685 964l217 0 -53 -964 -293 0 -103 321c-11,36 -23,73 -34,112 -11,39 -21,79 -31,118 -11,40 -21,78 -29,116l-6 0c-11,-57 -24,-114 -38,-173 -14,-59 -29,-116 -45,-172l-97 -322 -297 0 -63 964 206 0 19 -366c3,-40 4,-83 6,-128 2,-45 4,-90 6,-136 2,-46 3,-91 5,-135l3 0c7,42 17,85 27,129 9,43 19,86 30,128 10,42 21,82 32,121l105 372 174 0 120 -377c13,-38 26,-77 39,-119 13,-42 26,-85 38,-128 12,-42 23,-85 35,-126l2 0c0,47 1,93 1,139 2,46 3,91 4,134 1,43 3,85 4,123l16 369zm-1802 -964l332 668c3,8 6,16 7,23 2,7 0,15 -3,23 -6,15 -15,29 -28,42 -12,14 -27,24 -45,33 -18,9 -39,14 -62,14 -15,0 -30,-1 -41,-2 -12,-2 -22,-3 -32,-5l-16 174c10,3 20,6 30,9 10,2 23,4 35,5 13,1 28,2 45,2 58,-1 108,-12 150,-34 43,-23 80,-54 112,-94 25,-29 48,-65 70,-105 22,-41 43,-85 64,-132 20,-47 41,-96 61,-145l185 -476 -236 0 -106 343c-12,42 -22,78 -31,110 -8,31 -15,58 -22,78l-4 0c-11,-29 -23,-58 -34,-89 -10,-29 -23,-61 -37,-95l-143 -347 -251 0zm-527 156c38,1 72,9 102,26 29,17 54,41 74,70 20,30 35,64 45,103 11,39 16,81 16,124 0,47 -6,91 -16,131 -10,39 -26,74 -46,103 -20,30 -45,53 -74,69 -30,16 -64,25 -101,25 -37,0 -71,-8 -101,-24 -29,-16 -54,-38 -76,-66 -20,-29 -36,-63 -47,-102 -11,-40 -16,-84 -16,-131 0,-47 5,-91 16,-130 11,-40 26,-75 47,-104 20,-30 45,-53 75,-69 30,-16 64,-24 102,-25zm4 -173c-73,0 -138,13 -197,39 -59,25 -109,60 -151,105 -43,46 -75,99 -98,160 -22,62 -34,128 -34,201 0,55 7,108 20,157 14,49 34,95 60,135 25,41 57,76 95,106 38,30 81,53 129,69 48,16 102,25 160,25 73,0 139,-12 198,-35 59,-23 110,-56 153,-100 43,-44 76,-97 99,-159 23,-63 34,-134 35,-214 0,-53 -7,-105 -20,-153 -13,-49 -32,-94 -58,-134 -26,-41 -57,-77 -95,-107 -38,-30 -81,-53 -131,-69 -49,-17 -104,-25 -165,-26zm-555 981l-292 -493 278 -471 -255 0 -83 176c-9,19 -16,37 -23,53 -8,17 -15,34 -22,51 -7,18 -15,36 -22,57l-3 0c-12,-27 -23,-54 -36,-79 -11,-25 -25,-53 -39,-82l-86 -176 -256 0 275 477 -286 487 255 0 80 -174c11,-23 21,-43 31,-63 8,-19 17,-38 25,-56 8,-18 15,-36 22,-54l3 0c9,18 18,36 27,54 9,18 18,37 28,56 10,20 21,40 33,63l89 174 257 0zm2014 -2276l0 963 219 0 0 -403 43 0c39,0 72,9 97,26 25,16 46,39 61,68 16,28 30,61 41,98 10,36 22,72 34,108 11,35 25,70 42,103l240 0c-23,-48 -44,-97 -62,-149 -18,-51 -35,-102 -53,-154 -13,-39 -29,-73 -48,-105 -19,-31 -43,-57 -71,-79 -28,-21 -64,-37 -106,-47l344 -429 -271 0 -271 401 -20 0 0 -401 -219 0zm-1009 0l0 963 223 0 0 -403 367 0 0 403 223 0 0 -963 -223 0 0 370 -367 0 0 -370 -223 0zm-699 553l59 -204c5,-19 10,-39 15,-61 5,-21 10,-43 15,-64 5,-22 10,-42 15,-61l3 0c5,19 10,39 15,60 5,22 11,43 17,65 6,21 12,41 17,61l62 204 -218 0zm250 163l76 247 242 0 -308 -963 -292 0 -300 963 230 0 70 -247 282 0zm-1172 -213c13,-2 26,-3 39,-4 13,-1 26,-2 38,-2 27,0 53,4 79,11 26,6 49,17 69,32 17,12 29,27 39,45 9,18 14,39 14,64 0,23 -5,45 -13,64 -9,19 -20,35 -35,49 -19,16 -41,28 -66,36 -25,8 -52,12 -79,12 -16,0 -30,0 -45,-1 -14,-1 -28,-2 -40,-4l0 -302zm-221 -503l0 959c25,4 57,7 97,10 39,3 87,4 141,4 51,1 101,-3 151,-10 48,-8 95,-19 138,-35 43,-16 80,-38 112,-65 29,-26 52,-56 69,-93 16,-36 25,-78 25,-124 0,-36 -5,-68 -14,-97 -10,-29 -23,-55 -40,-77 -17,-22 -37,-42 -60,-58 -25,-18 -53,-33 -83,-44 -30,-12 -62,-21 -95,-26 -33,-6 -67,-8 -100,-8 -13,0 -26,0 -41,1 -14,0 -28,1 -42,2 -13,1 -26,2 -37,4l0 -166 433 0 0 -177 -654 0z"/>
 </g>
</svg>
