<?xml version="1.0" standalone="no"?>
<!DOCTYPE svg PUBLIC "-//W3C//DTD SVG 20010904//EN"
        "http://www.w3.org/TR/2001/REC-SVG-20010904/DTD/svg10.dtd">

<svg version="1.0"
     xmlns="http://www.w3.org/2000/svg"
     width="372pt"
     height="135pt"
     viewBox="0 0 372 135"
     preserveAspectRatio="xMidYMid meet">


    <g transform="translate(0,135) scale(0.1,-0.1)"
       fill="#006f51" stroke="none">

        <path d="M775 1176 c-102 -34 -161 -71 -240 -150 -116 -117 -168 -243 -168
-411 -1 -307 236 -558 549 -581 228 -17 456 113 560 319 29 56 64 185 64 234
l0 33 -104 0 -103 0 -6 -50 c-9 -75 -58 -169 -117 -224 -291 -272 -752 33
-611 404 50 131 182 233 313 242 l38 3 0 103 0 102 -52 0 c-29 -1 -84 -11
-123 -24z"/>

        <path d="M1203 1070 c-92 -56 -82 -203 17 -252 98 -49 210 21 210 131 0 52
-22 93 -66 122 -39 26 -119 25 -161 -1z"/>

        <path d="M1791 600 c-77 -18 -131 -95 -131 -185 0 -41 5 -56 23 -72 47 -44
142 -37 196 15 54 51 78 163 46 209 -13 18 -75 46 -95 42 -3 -1 -20 -5 -39 -9z
m58 -68 c12 -22 -3 -103 -25 -137 -18 -28 -55 -33 -73 -11 -16 19 -5 94 20
135 21 35 62 42 78 13z"/>
        <path d="M1980 574 c-14 -35 -14 -34 25 -34 19 0 35 -4 35 -9 0 -5 -11 -55
-24 -110 l-24 -101 43 0 42 0 13 63 c7 34 18 85 25 112 11 48 13 50 44 47 26
-2 33 2 41 24 6 14 10 27 10 30 0 2 -50 4 -110 4 -109 0 -111 0 -120 -26z"/>
        <path d="M2225 513 c-9 -49 -23 -112 -30 -140 l-13 -53 43 0 44 0 16 78 c32
148 26 137 73 140 51 4 51 1 22 -120 -11 -46 -20 -86 -20 -90 0 -5 20 -8 44
-8 l44 0 7 48 c4 26 15 83 26 127 10 44 19 86 19 93 0 9 -32 12 -128 12 l-129
0 -18 -87z"/>

    </g>

    <g transform="translate(0,135) scale(0.1,-0.1)"
       fill="#7ac142" stroke="none">

        <path d="M860 857 c-52 -16 -136 -105 -150 -158 -28 -103 8 -224 83 -281 34
-26 123 -58 162 -58 60 0 131 33 181 84 43 44 52 61 64 114 35 167 -80 314
-244 311 -34 -1 -77 -6 -96 -12z"/>


        <path d="M2730 685 c-8 -2 -31 -6 -52 -10 -75 -12 -138 -124 -138 -245 0 -72
25 -100 89 -100 62 0 95 21 120 79 30 71 28 116 -8 152 -24 24 -38 29 -75 29
-25 0 -46 5 -46 10 0 19 64 50 103 50 30 0 37 4 37 20 0 11 -3 19 -7 19 -5 -1
-15 -3 -23 -4z m-25 -140 c14 -13 25 -32 25 -42 0 -37 -22 -93 -46 -123 -29
-34 -58 -38 -86 -13 -38 34 -11 160 41 188 35 19 38 19 66 -10z"/>
        <path d="M2894 576 c-17 -8 -44 -30 -59 -50 -22 -29 -28 -48 -29 -92 0 -47 3
-59 23 -75 27 -22 100 -26 119 -7 9 9 12 9 12 0 0 -7 11 -12 25 -12 21 0 25 5
25 28 0 15 9 63 20 107 29 119 31 115 -42 115 -35 -1 -77 -7 -94 -14z m110
-14 c9 -14 -31 -163 -47 -180 -19 -19 -70 -20 -91 -2 -21 16 -21 82 0 121 22
43 122 87 138 61z"/>
        <path d="M3116 581 c-4 -5 -15 -52 -26 -104 -10 -53 -22 -106 -25 -120 -6 -22
-4 -24 18 -20 21 4 26 12 32 50 11 74 11 74 72 72 l55 -3 -6 -40 c-3 -23 -8
-51 -12 -62 -5 -18 -2 -21 18 -17 22 4 26 15 49 129 25 124 25 125 4 122 -15
-2 -23 -15 -31 -48 l-11 -45 -56 -3 c-63 -3 -66 1 -48 66 8 28 7 32 -9 32 -10
0 -21 -4 -24 -9z"/>
        <path d="M3370 564 c-6 -14 -10 -35 -10 -47 0 -12 -9 -56 -20 -97 -24 -93 -25
-88 4 -83 20 4 25 14 35 74 7 38 16 69 20 69 5 0 22 -31 39 -70 27 -61 34 -70
57 -70 15 0 25 3 23 8 -2 4 -18 36 -37 71 l-33 65 55 53 c50 48 53 53 31 53
-16 0 -40 -17 -73 -52 -27 -29 -53 -50 -56 -46 -4 4 -3 27 3 52 9 42 8 46 -9
46 -12 0 -23 -11 -29 -26z"/>

    </g>
</svg>
